<svg width="35" height="39" viewBox="0 0 35 39" fill="none" xmlns="http://www.w3.org/2000/svg">
<path d="M13.4603 18.2535C13.4958 16.6654 15.621 15.7959 15.621 15.7959C15.621 15.7959 23.8994 11.1204 28.2208 8.52978C29.1989 7.9531 30.0081 7.75792 30.5683 7.71356C31.0307 7.67807 31.493 7.78453 31.9109 7.98859C32.3644 8.21926 33.0758 8.60963 33.7427 9.10646C33.9027 9.23067 34.0539 9.36375 34.1784 9.52344C35.5211 11.2002 33.0402 12.673 33.0402 12.673L18.8665 20.7997C17.4883 21.4651 16.1901 20.8175 16.1901 20.8175L13.4603 19.3625C13.4603 19.3625 13.4603 18.5108 13.4603 18.2446V18.2535Z" fill="#CEC4F4"/>
<path d="M25.162 4.15589C24.8508 3.96958 24.4329 3.85424 23.9705 3.85424C23.3747 3.85424 22.9924 4.0583 22.5389 4.33333L9.11212 11.9987C9.11212 11.9987 7.77833 12.7262 7.50268 13.2586C7.3693 13.436 6.87136 13.9772 6.86247 15.379L6.78244 31.6058C6.78244 32.2801 7.10255 32.8124 7.56493 33.1762C7.56493 33.1762 9.30774 34.5247 10.4192 35.0127V18.7237C10.4192 18.7237 10.2681 15.5653 12.9267 13.9506C15.0964 12.6375 27.4205 5.56653 27.4205 5.56653L25.1709 4.16476L25.162 4.15589Z" fill="white"/>
<path d="M18.7332 0.358678C18.4219 0.172366 18.004 0.0570297 17.5416 0.0570297C16.9459 0.0570297 16.5635 0.261085 16.11 0.536117L2.68328 8.20152C2.68328 8.20152 1.3495 8.92902 1.07385 9.46134C0.940472 9.63878 0.442525 10.18 0.433634 11.5817L0.353607 28.0748C0.353607 28.749 0.673715 29.2814 1.13609 29.6451C1.13609 29.6451 2.8789 30.9937 3.99039 31.4816V14.9265C3.99039 14.9265 3.83923 11.7681 6.49791 10.1534C8.66753 8.8403 20.9917 1.76932 20.9917 1.76932L18.742 0.36755L18.7332 0.358678Z" fill="#CEC4F4"/>
<path d="M19.9158 23.7186H19.8713C19.3022 24.0735 18.4931 24.3042 17.5861 24.3042C16.8036 24.3042 16.0922 24.1356 15.5498 23.8606L13.4514 22.8137V28.2522L15.9855 29.6629C16.6347 29.9823 16.9192 30.1065 17.5505 30.1065C18.1818 30.1065 18.5286 29.9911 19.1155 29.6629L27.5094 24.801L32.6934 22.0418C32.6934 22.0418 34.5607 21.1103 34.6674 19.1141V15.2547L19.9069 23.7098L19.9158 23.7186Z" fill="white"/>
<path d="M19.9158 32.5108H19.8713C19.3022 32.8656 18.4931 33.0963 17.5861 33.0963C16.8036 33.0963 16.0922 32.9277 15.5498 32.6527L13.4514 31.6058V34.5868C13.4514 36.1039 14.2783 37.5057 15.6032 38.2421L15.9855 38.455C16.6347 38.7744 16.9192 38.8986 17.5505 38.8986C18.1818 38.8986 18.5286 38.7833 19.1155 38.455L27.5094 33.5932L32.6934 30.834C32.6934 30.834 34.3562 30.2129 34.6674 27.9062V24.0469L19.9069 32.5019L19.9158 32.5108Z" fill="#CEC4F4"/>
</svg>
